<svg id="visual" viewBox="0 0 1920 1080" width="1920" height="1080" xmlns="http://www.w3.org/2000/svg" xmlns:xlink="http://www.w3.org/1999/xlink" version="1.1"><rect x="0" y="0" width="1920" height="1080" fill="#dbfff5"></rect><path d="M0 781L137 700L274 810L411 765L549 759L686 721L823 737L960 677L1097 770L1234 750L1371 733L1509 721L1646 761L1783 693L1920 849L1920 1081L1783 1081L1646 1081L1509 1081L1371 1081L1234 1081L1097 1081L960 1081L823 1081L686 1081L549 1081L411 1081L274 1081L137 1081L0 1081Z" fill="#7bd1b8"></path><path d="M0 896L137 790L274 799L411 896L549 821L686 798L823 849L960 843L1097 829L1234 825L1371 796L1509 924L1646 905L1783 814L1920 901L1920 1081L1783 1081L1646 1081L1509 1081L1371 1081L1234 1081L1097 1081L960 1081L823 1081L686 1081L549 1081L411 1081L274 1081L137 1081L0 1081Z" fill="#bfe8db"></path><path d="M0 931L137 969L274 944L411 964L549 931L686 910L823 905L960 939L1097 927L1234 929L1371 932L1509 986L1646 927L1783 962L1920 973L1920 1081L1783 1081L1646 1081L1509 1081L1371 1081L1234 1081L1097 1081L960 1081L823 1081L686 1081L549 1081L411 1081L274 1081L137 1081L0 1081Z" fill="#ffffff"></path></svg>